<?xml version="1.0" encoding="utf-8"?>
<!-- Generator: Adobe Illustrator 26.0.2, SVG Export Plug-In . SVG Version: 6.00 Build 0)  -->
<svg version="1.1" xmlns="http://www.w3.org/2000/svg" xmlns:xlink="http://www.w3.org/1999/xlink" x="0px" y="0px"
	 viewBox="0 0 24 24" style="enable-background:new 0 0 24 24;" xml:space="preserve">
<style type="text/css">
	.st0{fill:#FFFFFF;}
	.st1{fill:#D0D3D9;}
</style>
<g id="BACKGROUND">
</g>
<g id="OBJECTS">
	<path class="st1" d="M24,12c0-3.4-1.5-6.7-4.1-9c0,0,0,0,0,0c0,0,0,0,0,0c-2.1-1.9-4.9-2.9-7.7-3c0,0,0,0,0,0c0,0,0,0,0,0l-0.1,0
		c0,0-0.1,0-0.1,0c0,0-0.1,0-0.1,0l-0.1,0c0,0,0,0,0,0c0,0,0,0,0,0C9,0.1,6.2,1.1,4.1,3c0,0,0,0,0,0c0,0,0,0,0,0C1.5,5.3,0,8.6,0,12
		c0,3.3,1.3,6.3,3.7,8.6c2.2,2.1,5.1,3.3,8.1,3.4c0,0,0,0,0,0l0.1,0c0,0,0.1,0,0.1,0c0,0,0.1,0,0.1,0l0.1,0c0,0,0,0,0,0
		c3.1-0.1,5.9-1.2,8.1-3.4C22.7,18.3,24,15.3,24,12z M19.9,19.4c-0.8-0.7-1.7-1.2-2.7-1.6c0.7-1.7,1.1-3.4,1.2-5.2h4.4
		C22.7,15.1,21.6,17.5,19.9,19.4z M12.6,1.9c1,0.9,1.9,1.9,2.6,3c-0.9,0.3-1.8,0.4-2.6,0.5V1.9z M11.4,1.9v3.5
		c-0.9,0-1.8-0.2-2.6-0.5C9.5,3.9,10.4,2.8,11.4,1.9z M16.1,17.3c-1.1-0.4-2.3-0.6-3.5-0.7v-4.1h4.6C17.2,14.2,16.8,15.8,16.1,17.3z
		 M11.4,16.7c-1.2,0.1-2.4,0.3-3.5,0.7c-0.7-1.5-1.1-3.1-1.1-4.7h4.6V16.7z M11.4,17.8v4.2c-1.2-1-2.2-2.3-3-3.7
		C9.4,18.1,10.4,17.9,11.4,17.8z M12.6,22.1v-4.2c1,0.1,2,0.2,3,0.6C14.8,19.8,13.8,21,12.6,22.1z M12.6,11.4V6.6
		c1.1-0.1,2.2-0.2,3.2-0.6c0.8,1.7,1.3,3.5,1.4,5.4H12.6z M16.4,4.6c-0.7-1.2-1.6-2.3-2.7-3.3c1.8,0.3,3.4,1,4.9,2.1
		C17.9,3.9,17.1,4.3,16.4,4.6z M7.6,4.6C6.9,4.3,6.1,3.9,5.5,3.4c1.4-1.1,3.1-1.8,4.9-2.1C9.3,2.3,8.4,3.4,7.6,4.6z M8.2,6
		c1.1,0.3,2.1,0.5,3.2,0.6v4.8H6.8C6.8,9.5,7.3,7.7,8.2,6z M5.6,12.6c0.1,1.8,0.5,3.5,1.2,5.2c-1,0.4-1.8,1-2.7,1.6
		c-1.8-1.9-2.8-4.3-2.9-6.8H5.6z M7.3,18.8c0.8,1.4,1.8,2.8,3,3.8c-2-0.3-3.8-1.2-5.3-2.5C5.7,19.7,6.5,19.2,7.3,18.8z M16.7,18.8
		c0.8,0.4,1.6,0.8,2.3,1.4c-1.5,1.3-3.4,2.2-5.3,2.5C14.9,21.6,15.9,20.3,16.7,18.8z M22.8,11.4h-4.4c-0.1-2-0.6-4-1.5-5.8
		c0.9-0.4,1.7-0.9,2.5-1.4C21.5,6.1,22.6,8.7,22.8,11.4z M4.5,4.2c0.8,0.6,1.6,1,2.5,1.4c-0.9,1.8-1.4,3.8-1.5,5.8H1.2
		C1.4,8.7,2.5,6.1,4.5,4.2z"/>
</g>
<g id="DESIGNED_BY_FREEPIK">
</g>
</svg>
